<svg xmlns="http://www.w3.org/2000/svg" xmlns:xlink="http://www.w3.org/1999/xlink" contentStyleType="text/css" height="1440px" preserveAspectRatio="none" style="width:1209px;height:1440px;background:#FFFFFF;" version="1.1" viewBox="0 0 1209 1440" width="1209px" zoomAndPan="magnify"><title>Backend UML &#8212; implemented use cases</title><defs/><g><text fill="#000000" font-family="sans-serif" font-size="14" font-weight="bold" lengthAdjust="spacing" textLength="287.5811" x="456.7095" y="23.5352">Backend UML &#8212; implemented use cases</text><!--cluster SovereignForgeAI backend ? /api/v1--><g id="cluster_SovereignForge backend &#183; /api/v1"><rect fill="none" height="1059" rx="2.5" ry="2.5" style="stroke:#181818;stroke-width:1;" width="661" x="396" y="177.9883"/><text fill="#000000" font-family="sans-serif" font-size="14" font-weight="bold" lengthAdjust="spacing" textLength="250.4893" x="601.2554" y="193.5234">SovereignForgeAI backend &#183; /api/v1</text></g><!--entity Visitor--><g id="elem_Visitor"><ellipse cx="241.4741" cy="193.4883" fill="#F1F1F1" rx="8" ry="8" style="stroke:#181818;stroke-width:0.5;"/><path d="M241.4741,201.4883 L241.4741,228.4883 M228.4741,209.4883 L254.4741,209.4883 M241.4741,228.4883 L228.4741,243.4883 M241.4741,228.4883 L254.4741,243.4883 " fill="none" style="stroke:#181818;stroke-width:0.5;"/><text fill="#000000" font-family="sans-serif" font-size="14" lengthAdjust="spacing" textLength="43.9482" x="219.5" y="258.5234">Visitor</text></g><!--entity User--><g id="elem_User"><ellipse cx="241.2886" cy="596.4883" fill="#F1F1F1" rx="8" ry="8" style="stroke:#181818;stroke-width:0.5;"/><path d="M241.2886,604.4883 L241.2886,631.4883 M228.2886,612.4883 L254.2886,612.4883 M241.2886,631.4883 L228.2886,646.4883 M241.2886,631.4883 L254.2886,646.4883 " fill="none" style="stroke:#181818;stroke-width:0.5;"/><text fill="#000000" font-family="sans-serif" font-size="14" lengthAdjust="spacing" textLength="128.5771" x="177" y="661.5234">Authenticated user</text></g><!--entity Owner--><g id="elem_Owner"><ellipse cx="73.0811" cy="952.4883" fill="#F1F1F1" rx="8" ry="8" style="stroke:#181818;stroke-width:0.5;"/><path d="M73.0811,960.4883 L73.0811,987.4883 M60.0811,968.4883 L86.0811,968.4883 M73.0811,987.4883 L60.0811,1002.4883 M73.0811,987.4883 L86.0811,1002.4883 " fill="none" style="stroke:#181818;stroke-width:0.5;"/><text fill="#000000" font-family="sans-serif" font-size="14" lengthAdjust="spacing" textLength="134.1621" x="6" y="1017.5234">Organization owner</text></g><!--entity Ollama--><g id="elem_Ollama"><ellipse cx="958.0649" cy="1253.9883" fill="#F1F1F1" rx="8" ry="8" style="stroke:#181818;stroke-width:0.5;"/><path d="M958.0649,1261.9883 L958.0649,1288.9883 M945.0649,1269.9883 L971.0649,1269.9883 M958.0649,1288.9883 L945.0649,1303.9883 M958.0649,1288.9883 L971.0649,1303.9883 " fill="none" style="stroke:#181818;stroke-width:0.5;"/><text fill="#000000" font-family="sans-serif" font-size="14" lengthAdjust="spacing" textLength="133.1299" x="891.5" y="1319.0234">Local model service</text><text fill="#000000" font-family="sans-serif" font-size="14" lengthAdjust="spacing" textLength="56.6084" x="891.5" y="1335.5117">(Ollama)</text></g><!--entity Runner--><g id="elem_Runner"><ellipse cx="1144.0952" cy="645.9883" fill="#F1F1F1" rx="8" ry="8" style="stroke:#181818;stroke-width:0.5;"/><path d="M1144.0952,653.9883 L1144.0952,680.9883 M1131.0952,661.9883 L1157.0952,661.9883 M1144.0952,680.9883 L1131.0952,695.9883 M1144.0952,680.9883 L1157.0952,695.9883 " fill="none" style="stroke:#181818;stroke-width:0.5;"/><text fill="#000000" font-family="sans-serif" font-size="14" lengthAdjust="spacing" textLength="116.1904" x="1086" y="711.0234">Isolated sandbox</text><text fill="#000000" font-family="sans-serif" font-size="14" lengthAdjust="spacing" textLength="45.3223" x="1086" y="727.5117">runner</text></g><g id="elem_GMN48"><path d="M343,110.4883 L343,157.6462 L472.9004,639.5658 L343,165.6462 L343,169.9531 A0,0 0 0 0 343,169.9531 L764.4219,169.9531 A0,0 0 0 0 764.4219,169.9531 L764.4219,120.4883 L754.4219,110.4883 L343,110.4883 A0,0 0 0 0 343,110.4883 " fill="#FEFFDD" style="stroke:#181818;stroke-width:0.5;"/><path d="M754.4219,110.4883 L754.4219,120.4883 L764.4219,120.4883 L754.4219,110.4883 " fill="#FEFFDD" style="stroke:#181818;stroke-width:0.5;"/><text fill="#000000" font-family="sans-serif" font-size="14" lengthAdjust="spacing" textLength="399.8271" x="349" y="129.0234">Specialized workflows use the same POST /tasks endpoint.</text><text fill="#000000" font-family="sans-serif" font-size="14" lengthAdjust="spacing" textLength="400.4219" x="349" y="145.5117">Dispatch depends on task mode, goal and supplied inputs.</text><text fill="#000000" font-family="sans-serif" font-size="14" lengthAdjust="spacing" textLength="325.165" x="349" y="162">Authenticated use cases require a valid session.</text></g><g id="elem_GMN51"><path d="M391,49.4883 L391,60.7756 L450.9918,1212.8245 L391,68.7756 L391,92.4648 A0,0 0 0 0 391,92.4648 L715.9531,92.4648 A0,0 0 0 0 715.9531,92.4648 L715.9531,59.4883 L705.9531,49.4883 L391,49.4883 A0,0 0 0 0 391,49.4883 " fill="#FEFFDD" style="stroke:#181818;stroke-width:0.5;"/><path d="M705.9531,49.4883 L705.9531,59.4883 L715.9531,59.4883 L705.9531,49.4883 " fill="#FEFFDD" style="stroke:#181818;stroke-width:0.5;"/><text fill="#000000" font-family="sans-serif" font-size="14" lengthAdjust="spacing" textLength="303.9531" x="397" y="68.0234">Owner role is checked for model registration</text><text fill="#000000" font-family="sans-serif" font-size="14" lengthAdjust="spacing" textLength="211.5039" x="397" y="84.5117">and enable/disable operations.</text></g><g id="elem_Login"><ellipse cx="553.3284" cy="222.954" fill="#EEF4FF" rx="77.8284" ry="17.9657" style="stroke:#365880;stroke-width:0.5;"/><text fill="#000000" font-family="sans-serif" font-size="14" lengthAdjust="spacing" textLength="112.9023" x="496.8773" y="226.245">Sign up / sign in</text></g><g id="elem_Account"><ellipse cx="553.3081" cy="285.7499" fill="#EEF4FF" rx="121.8081" ry="26.7616" style="stroke:#365880;stroke-width:0.5;"/><text fill="#000000" font-family="sans-serif" font-size="14" lengthAdjust="spacing" textLength="133.8545" x="486.3808" y="280.7968">Manage own profile</text><text fill="#000000" font-family="sans-serif" font-size="14" lengthAdjust="spacing" textLength="159.0996" x="473.7583" y="297.285">and sessions / sign out</text></g><g id="elem_Files"><ellipse cx="553.5991" cy="361.8081" fill="#EEF4FF" rx="142.0991" ry="30.8198" style="stroke:#365880;stroke-width:0.5;"/><text fill="#000000" font-family="sans-serif" font-size="14" lengthAdjust="spacing" textLength="164.165" x="471.5166" y="356.855">Create / list workspaces</text><text fill="#000000" font-family="sans-serif" font-size="14" lengthAdjust="spacing" textLength="212.0713" x="447.5635" y="373.3433">and upload / list / remove files</text></g><g id="elem_Ingest"><ellipse cx="553.4068" cy="440.9696" fill="#EEF4FF" rx="137.9068" ry="29.9814" style="stroke:#365880;stroke-width:0.5;"/><text fill="#000000" font-family="sans-serif" font-size="14" lengthAdjust="spacing" textLength="201.5713" x="452.4479" y="436.0614">Create / list knowledge bases</text><text fill="#000000" font-family="sans-serif" font-size="14" lengthAdjust="spacing" textLength="150.9307" x="477.7683" y="452.5497">and ingest documents</text></g><g id="elem_Search"><ellipse cx="553.3924" cy="507.7668" fill="#EEF4FF" rx="81.8924" ry="18.7785" style="stroke:#365880;stroke-width:0.5;"/><text fill="#000000" font-family="sans-serif" font-size="14" lengthAdjust="spacing" textLength="122.5342" x="492.1253" y="511.0578">Search knowledge</text></g><g id="elem_Chat"><ellipse cx="553.6321" cy="567.0147" fill="#EEF4FF" rx="98.1321" ry="22.0264" style="stroke:#365880;stroke-width:0.5;"/><text fill="#000000" font-family="sans-serif" font-size="14" lengthAdjust="spacing" textLength="159.4756" x="473.8943" y="570.3057">Chat with a local model</text></g><g id="elem_Submit"><ellipse cx="553.4259" cy="625.9735" fill="#EEF4FF" rx="80.4259" ry="18.4852" style="stroke:#365880;stroke-width:0.5;"/><text fill="#000000" font-family="sans-serif" font-size="14" lengthAdjust="spacing" textLength="119.082" x="493.8849" y="629.2645">Submit an AI task</text></g><g id="elem_Analyze"><ellipse cx="553.3848" cy="835.9652" fill="#EEF4FF" rx="132.8848" ry="28.977" style="stroke:#365880;stroke-width:0.5;"/><text fill="#000000" font-family="sans-serif" font-size="14" lengthAdjust="spacing" textLength="144.6689" x="481.0503" y="831.0121">Analyze documents /</text><text fill="#000000" font-family="sans-serif" font-size="14" lengthAdjust="spacing" textLength="188.7334" x="459.0181" y="847.5004">answer grounded questions</text></g><g id="elem_Code"><ellipse cx="553.401" cy="683.7685" fill="#EEF4FF" rx="94.401" ry="21.2802" style="stroke:#365880;stroke-width:0.5;"/><text fill="#000000" font-family="sans-serif" font-size="14" lengthAdjust="spacing" textLength="151.1563" x="477.8228" y="687.0595">Repair and verify code</text></g><g id="elem_Procurement"><ellipse cx="553.5748" cy="755.8032" fill="#EEF4FF" rx="149.5748" ry="32.315" style="stroke:#365880;stroke-width:0.5;"/><text fill="#000000" font-family="sans-serif" font-size="14" lengthAdjust="spacing" textLength="230.3848" x="438.3824" y="750.8501">Compare procurement quotations</text><text fill="#000000" font-family="sans-serif" font-size="14" lengthAdjust="spacing" textLength="215.7832" x="445.6832" y="767.3384">and generate recommendations</text></g><g id="elem_Verify"><ellipse cx="957.7627" cy="684.0408" fill="#EEF4FF" rx="90.7627" ry="20.5525" style="stroke:#365880;stroke-width:0.5;"/><text fill="#000000" font-family="sans-serif" font-size="14" lengthAdjust="spacing" textLength="142.96" x="886.2827" y="687.3318">Run code verification</text></g><g id="elem_Track"><ellipse cx="553.6726" cy="1052.1228" fill="#EEF4FF" rx="131.1726" ry="28.6345" style="stroke:#365880;stroke-width:0.5;"/><text fill="#000000" font-family="sans-serif" font-size="14" lengthAdjust="spacing" textLength="183.9414" x="458.7019" y="1047.8962">Inspect task status / steps;</text><text fill="#000000" font-family="sans-serif" font-size="14" lengthAdjust="spacing" textLength="142.4814" x="479.4318" y="1064.3845">cancel or retry a task</text></g><g id="elem_Results"><ellipse cx="553.5822" cy="1127.8047" fill="#EEF4FF" rx="134.5822" ry="29.3164" style="stroke:#365880;stroke-width:0.5;"/><text fill="#000000" font-family="sans-serif" font-size="14" lengthAdjust="spacing" textLength="193.0195" x="455.1884" y="1123.3201">Preview / download artifacts</text><text fill="#000000" font-family="sans-serif" font-size="14" lengthAdjust="spacing" textLength="165.833" x="468.7817" y="1139.8084">and inspect audit events</text></g><g id="elem_Models"><ellipse cx="553.2984" cy="906.848" fill="#EEF4FF" rx="107.2984" ry="23.8597" style="stroke:#365880;stroke-width:0.5;"/><text fill="#000000" font-family="sans-serif" font-size="14" lengthAdjust="spacing" textLength="179.6143" x="463.4913" y="910.139">List models / check health</text></g><g id="elem_ManageModels"><ellipse cx="553.2787" cy="1201.8429" fill="#EEF4FF" rx="102.2787" ry="26.3547" style="stroke:#365880;stroke-width:0.5;"/><text fill="#000000" font-family="sans-serif" font-size="14" lengthAdjust="spacing" textLength="128.1807" x="486.1884" y="1197.6164">Register / enable /</text><text fill="#000000" font-family="sans-serif" font-size="14" lengthAdjust="spacing" textLength="102.2793" x="499.1391" y="1214.1047">disable models</text></g><g id="elem_Security"><ellipse cx="553.7058" cy="977.1294" fill="#EEF4FF" rx="128.7058" ry="28.1412" style="stroke:#365880;stroke-width:0.5;"/><text fill="#000000" font-family="sans-serif" font-size="14" lengthAdjust="spacing" textLength="177.2285" x="462.0915" y="972.9029">Inspect sovereignty status</text><text fill="#000000" font-family="sans-serif" font-size="14" lengthAdjust="spacing" textLength="131.3662" x="485.0227" y="989.3912">and run egress test</text></g><polygon fill="none" points="222.6841,664.0812,209.6234,677.8442,220.4933,682.928,222.6841,664.0812" style="stroke:#526580;stroke-width:1;"/><path d="M91.8184,943.89 C123.823,875.4598 183.0555,748.8126 215.0583,680.3861 " fill="none" style="stroke:#526580;stroke-width:1;"/><path d="M263.8076,222.9883 C306.692,222.9883 405.2955,222.9883 475.3058,222.9883 " fill="none" style="stroke:#526580;stroke-width:1;"/><path d="M243.2153,587.9881 C246.6375,522.8638 263.5954,390.3556 343,321.9883 C367.4709,300.9189 399.6885,290.0467 431.4984,284.8624 " fill="none" style="stroke:#526580;stroke-width:1;"/><path d="M248.5671,587.6634 C258.7146,536.9369 284.1464,448.506 343,401.9883 C362.754,386.3748 386.7953,376.2337 411.4525,369.7594 " fill="none" style="stroke:#526580;stroke-width:1;"/><path d="M258.4074,587.8745 C274.5943,554.0095 302.9992,505.9669 343,479.9883 C364.5639,465.9836 389.8602,456.7086 415.273,450.6273 " fill="none" style="stroke:#526580;stroke-width:1;"/><path d="M274.9475,587.6517 C293.0047,568.942 317.046,547.9416 343,535.9883 C382.8293,517.6446 431.1241,510.3252 471.3023,507.7351 " fill="none" style="stroke:#526580;stroke-width:1;"/><path d="M306.0021,607.0061 C318.2141,603.7227 330.9524,600.5475 343,597.9883 C379.4146,590.253 419.7961,583.7872 455.3103,578.7968 " fill="none" style="stroke:#526580;stroke-width:1;"/><path d="M306.3563,625.9883 C354.5664,625.9883 421.0216,625.9883 472.7302,625.9883 " fill="none" style="stroke:#526580;stroke-width:1;"/><path d="M247.1542,664.1133 C258.7001,752.2367 291.4999,966.1656 343,1013.9883 C364.6699,1034.1108 393.2551,1045.3677 422.3174,1051.3349 " fill="none" style="stroke:#526580;stroke-width:1;"/><path d="M245.4257,664.3247 C253.8783,764.5604 281.7393,1030.7679 343,1089.9883 C363.5308,1109.8353 390.7475,1121.1645 418.7456,1127.3093 " fill="none" style="stroke:#526580;stroke-width:1;"/><path d="M246.4313,664.3724 C254.3004,719.9453 277.3258,821.8499 343,873.9883 C371.7652,896.8248 409.9213,906.8751 445.7827,910.6364 " fill="none" style="stroke:#526580;stroke-width:1;"/><path d="M242.7838,664.1009 C245.4888,730.8637 261.3061,868.637 343,939.9883 C365.6717,959.7897 395.1413,970.7332 424.7826,976.452 " fill="none" style="stroke:#526580;stroke-width:1;"/><path d="M116.6578,1020.2785 C166.979,1063.1983 254.9752,1131.4221 343,1166.9883 C376.8483,1180.6646 415.8481,1188.9974 450.9529,1194.0743 " fill="none" style="stroke:#526580;stroke-width:1;"/><polygon fill="none" points="472.8878,611.9981,455.3901,604.6612,454.4875,616.6272,472.8878,611.9981" style="stroke:#526580;stroke-width:1;"/><path d="M420.2877,841.7792 C381.972,835.8277 345.0199,820.7901 324.5,787.9883 C309.6503,764.2504 309.6503,685.7262 324.5,661.9883 C354.2747,614.3921 401.6499,606.6246 454.9388,610.6442 " fill="none" style="stroke:#526580;stroke-width:1;"/><polygon fill="none" points="553.5,644.6797,547.5,662.6797,559.5,662.6797,553.5,644.6797" style="stroke:#526580;stroke-width:1;"/><path d="M553.5,662.2383 C553.5,656.3854 553.5,668.5326 553.5,662.6797 " fill="none" style="stroke:#526580;stroke-width:1;"/><polygon fill="none" points="472.8878,611.9981,455.3901,604.6612,454.4875,616.6272,472.8878,611.9981" style="stroke:#526580;stroke-width:1;"/><path d="M403.6405,741.2905 C344.9525,728.7051 297.3773,705.3451 324.5,661.9883 C354.2747,614.3921 401.6499,606.6246 454.9388,610.6442 " fill="none" style="stroke:#526580;stroke-width:1;"/><polygon fill="#526580" points="866.689,683.9883,857.689,679.9883,861.689,683.9883,857.689,687.9883,866.689,683.9883" style="stroke:#526580;stroke-width:1;"/><path d="M648.1067,683.9883 C713.9536,683.9883 795.5856,683.9883 860.689,683.9883 " fill="none" style="stroke:#526580;stroke-width:1;stroke-dasharray:7.0,7.0;"/><text fill="#000000" font-family="sans-serif" font-size="14" lengthAdjust="spacing" textLength="63.9229" x="784" y="679.5234">&#171;include&#187;</text><path d="M651.5326,557.0926 C691.7207,558.4978 735.5057,568.1317 764,597.9883 C791.6015,626.9094 770.2695,738.7696 782,776.9883 C800.3803,836.8725 832.0419,840.6859 849,900.9883 C869.4828,973.8244 827.1906,1176.6466 867,1240.9883 C873.0476,1250.7626 881.6964,1258.8373 891.2678,1265.4513 " fill="none" style="stroke:#526580;stroke-width:1;"/><path d="M691.558,440.8243 C718.9759,447.2598 745.1129,459.159 764,479.9883 C795.1647,514.3577 764.2858,645.1082 782,687.9883 C799.7077,730.8526 832.3322,724.709 849,767.9883 C867.9016,817.068 839.6607,1196.0589 867,1240.9883 C872.9748,1250.8073 881.5872,1258.9043 891.145,1265.5266 " fill="none" style="stroke:#526580;stroke-width:1;"/><path d="M635.6733,496.5119 C679.7641,495.1364 731.7163,502.2522 764,535.9883 C795.1584,568.5484 765.5956,696.0132 782,737.9883 C799.7648,783.4442 832.2768,779.1389 849,824.9883 C864.8533,868.4528 842.8474,1201.5276 867,1240.9883 C873.0003,1250.7917 881.6255,1258.8809 891.1881,1265.5003 " fill="none" style="stroke:#526580;stroke-width:1;"/><path d="M686.6408,834.3578 C715.7323,840.375 743.84,852.2271 764,873.9883 C790.4182,902.5047 772.0453,1010.4115 782,1047.9883 C806.0022,1138.5912 804.1435,1171.461 867,1240.9883 C873.9855,1248.7151 882.4254,1255.5586 891.3022,1261.5224 " fill="none" style="stroke:#526580;stroke-width:1;"/><path d="M648.0692,674.2404 C688.8157,675.2547 734.0128,684.3503 764,713.9883 C782.5535,732.3257 775.1757,804.8105 782,829.9883 C803.2454,908.3719 830.8821,920.8233 849,999.9883 C860.9812,1052.3395 838.2502,1195.627 867,1240.9883 C873.1531,1250.6966 881.8546,1258.7382 891.4458,1265.3398 " fill="none" style="stroke:#526580;stroke-width:1;"/><path d="M703.2411,762.4542 C726.0658,769.5977 747.4865,780.8026 764,797.9883 C781.6179,816.3234 776.067,886.2624 782,910.9883 C804.5625,1005.0183 827.0329,1023.8173 849,1117.9883 C861.5509,1171.7927 835.7914,1195.3981 867,1240.9883 C873.2897,1250.1765 881.8118,1257.9055 891.116,1264.3433 " fill="none" style="stroke:#526580;stroke-width:1;"/><path d="M1049.1134,683.9883 C1061.5879,683.9883 1074.1088,683.9883 1085.7579,683.9883 " fill="none" style="stroke:#526580;stroke-width:1;"/><rect fill="none" height="75.9531" id="_legend" rx="7.5" ry="7.5" style="stroke:#000000;stroke-width:1;" width="518.7305" x="341.1348" y="1344.4883"/><text fill="#000000" font-family="sans-serif" font-size="14" lengthAdjust="spacing" textLength="436.0303" x="346.1348" y="1363.0234">Solid line = actor participation. Hollow triangle = specialization.</text><text fill="#000000" font-family="sans-serif" font-size="14" lengthAdjust="spacing" textLength="436.2422" x="346.1348" y="1379.5117">&#171;include&#187; = required behavior for a successful coding workflow.</text><text fill="#000000" font-family="sans-serif" font-size="14" lengthAdjust="spacing" textLength="502.8037" x="346.1348" y="1396">No human-review/resume use case is claimed: it is not an exposed route.</text><text fill="#000000" font-family="sans-serif" font-size="14" lengthAdjust="spacing" textLength="508.7305" x="346.1348" y="1412.4883">Infrastructure storage and public health probes are omitted for readability.</text><!--SRC=[TLRBRXit5DtFLzowcnQehQQ9Wo9D33XfZ1gmOyDAilA6chaQ4UAG4pwaA6s1VaJ_fVj-Ih-aX-HmDB9RRpmax_Fmd4jzrLlHTeAKs9dWoNNiXHQLbrunlHRrcdL37wwlw9y__YJPzOexrfuR2ewf5evTfNZfoHkoibrvQgJbsakZAxUMkXTMTBH0dDQQe9itHXbBNr-aluc5Mud6RALkQIcKuyb9mqiHbBymshyJ7TDSQ3TdAvV_RJENNvYUF9iSdbjhjaFUqn-Ud_xu_UGGNSGcNZyiyEtRYsS71HP3OnksWz5J13k8rYECQ7dkTm0lmY1qgwRDQDEmuvwUJhsiqEku-VoqgaJj4VcZT1B_XzNHUV0hW2vhCG1lZqWu-e2FOd9ZMw7b5n619xFLWybD_2esLwOMYZgKe0Yk6rdplVxcHYdHYM-pUVekzfVEg9JH2TqipETxROCkaU_IPvKIqF7nRsUvd6hicexcPiEMPQilZ6qvaI2IwU-_Q2PwETiyEQ9VAoh8mXwc57gQaOjVKgT4LwQLUcfs3NuY79gatfgbLEW21Q8bvz2zA_wWSmfmNjUuM3yDySOo6eEXaixJrjYrmzMnou52huneokaC5zcX4ugPN8fu4R_-FzvQcwtY9hNiIb1Gct7Mc3f40UL0bsdp00CMjbxjGoIpl7cGS2LGj_GhWdBtrvgiuzb1oB3ef2UXwVoIl73h73FjJktEjL0xY6SiaMQnTBV51MTjW0gV0WgEA6TeiyiqoXttGbgABM-YIdTKex9S63uEcZ0T1C3n5kjWqrn1VECJYGVOMWQ_8hRWbUbWqeXz-jkzuq49GQUakO2e6dWaXu-fegdjfNOz69jm8OVK8V77S-z-kjUrq3N40Z5OzdO7i4VytblGUHhfrl96yXRU66GwCKXOBvSGqqY1d4k41lV1cv46T-mmlGuOTHM9bEuqrbElk5xJYeNog-HndKuESM_XWgkQ4MknWFvmUurqwJC7ofv9FO_z2n2kYDRl1ZnoyP0-SMkXCVAWmC1Bm2_zhlgzgeQHXL4mA3QEWxWgyYlhB9wo6XHGbWFJop9HUJpBZ2tBV05bLI0iww71VToXqZAl3d6e2lVZ71loHBPErnEoFJ8xEJaRk4KlwELBgMiL6Zuxgv9EaMqOhBdRoSOWz_t6MCYua-iObmTbZBj3yWX4dikLDX3DmdXlEZBBlTpdk6Kf55x99Ws-fJ9Rbnvpl36Oz7XXRs_cxsaMcUx0fQOtKliJkFuiCIKzocsunxuZF3L9Dv5Utr5hC8RI80vzhoH7mlV1k-Zww0NBFnqWgqy1lnSWh0rg6cVuIHKVYjZ2mpuUq3TVfpNWk7HP9eY_10_pCsUJAcoQ032FrMLrp8eqJC_vs4sIAcxZTquRGJEnE2KrqolAhsCVnLtBFlcUq2z60KZoLkR7xnMv0dIsG9G9CN0-j8uil18RYP2nR07qQhn4RXbK76Bn5r6vfXZZdQ5Lw8G-pjDc1a5YM8-89XIKa1qtBmX31aiq56S_V-wDGpOCSiynqgLUMW5iGkt19sZTsFYiHeZwi52o7kPD7CyBN5MSr0OSyWF0UF8QiP0Agah8PSp-1G00]--></g></svg>
