<svg xmlns="http://www.w3.org/2000/svg" xmlns:xlink="http://www.w3.org/1999/xlink" contentStyleType="text/css" height="999px" preserveAspectRatio="none" style="width:2675px;height:999px;background:#FFFFFF;" version="1.1" viewBox="0 0 2675 999" width="2675px" zoomAndPan="magnify"><title>Backend LLD &#8212; implemented Python modules</title><defs/><g><text fill="#000000" font-family="sans-serif" font-size="14" font-weight="bold" lengthAdjust="spacing" textLength="330.1895" x="1164.9053" y="23.5352">Backend LLD &#8212; implemented Python modules</text><!--cluster HTTP boundary ? app/main.py + app/api--><g id="cluster_HTTP boundary &#183; app/main.py + app/api"><rect fill="none" height="417.5" rx="2.5" ry="2.5" style="stroke:#9CAEC3;stroke-width:1;" width="526" x="14" y="41.4883"/><text fill="#000000" font-family="sans-serif" font-size="13" font-weight="bold" lengthAdjust="spacing" textLength="277.2021" x="138.3989" y="56.0566">HTTP boundary &#183; app/main.py + app/api</text></g><!--cluster Application execution ? app/tasks--><g id="cluster_Application execution &#183; app/tasks"><rect fill="none" height="556.5" rx="2.5" ry="2.5" style="stroke:#9CAEC3;stroke-width:1;" width="503" x="548" y="333.4883"/><text fill="#000000" font-family="sans-serif" font-size="13" font-weight="bold" lengthAdjust="spacing" textLength="230.0771" x="684.4614" y="348.0566">Application execution &#183; app/tasks</text></g><!--cluster Capabilities--><g id="cluster_Capabilities"><rect fill="none" height="239" rx="2.5" ry="2.5" style="stroke:#9CAEC3;stroke-width:1;" width="1034" x="1059" y="503.4883"/><text fill="#000000" font-family="sans-serif" font-size="13" font-weight="bold" lengthAdjust="spacing" textLength="78.9204" x="1536.5398" y="518.0566">Capabilities</text></g><!--cluster Adapters and persistence--><g id="cluster_Adapters and persistence"><rect fill="none" height="103" rx="2.5" ry="2.5" style="stroke:#9CAEC3;stroke-width:1;" width="1159" x="1510" y="779.4883"/><text fill="#000000" font-family="sans-serif" font-size="13" font-weight="bold" lengthAdjust="spacing" textLength="170.9805" x="2004.0098" y="794.0566">Adapters and persistence</text></g><!--entity main--><g id="elem_main"><rect fill="#EEF4FF" height="50.6211" rx="2.5" ry="2.5" style="stroke:#365880;stroke-width:0.5;" width="181.2876" x="289.5" y="85.4883"/><text fill="#000000" font-family="sans-serif" font-size="13" lengthAdjust="spacing" textLength="80.5898" x="299.5" y="108.0566">app/main.py</text><text fill="#000000" font-family="sans-serif" font-size="13" lengthAdjust="spacing" textLength="161.2876" x="299.5" y="123.3672">FastAPI + worker lifespan</text></g><!--entity tasks_api--><g id="elem_tasks_api"><rect fill="#EEF4FF" height="65.9316" rx="2.5" ry="2.5" style="stroke:#365880;stroke-width:0.5;" width="161.4956" x="22.5" y="206.9883"/><text fill="#000000" font-family="sans-serif" font-size="13" lengthAdjust="spacing" textLength="98.9028" x="32.5" y="229.5566">routes/tasks.py</text><text fill="#000000" font-family="sans-serif" font-size="13" lengthAdjust="spacing" textLength="137.4141" x="32.5" y="244.8672">submit &#183; cancel &#183; retry</text><text fill="#000000" font-family="sans-serif" font-size="13" lengthAdjust="spacing" textLength="141.4956" x="32.5" y="260.1777">steps &#183; artifacts &#183; audit</text></g><!--entity knowledge_api--><g id="elem_knowledge_api"><rect fill="#EEF4FF" height="65.9316" rx="2.5" ry="2.5" style="stroke:#365880;stroke-width:0.5;" width="166.8721" x="364.5" y="206.9883"/><text fill="#000000" font-family="sans-serif" font-size="13" lengthAdjust="spacing" textLength="134.2085" x="374.5" y="229.5566">routes/knowledge.py</text><text fill="#000000" font-family="sans-serif" font-size="13" lengthAdjust="spacing" textLength="146.8721" x="374.5" y="244.8672">workspaces &#183; files &#183; KBs</text><text fill="#000000" font-family="sans-serif" font-size="13" lengthAdjust="spacing" textLength="92.0981" x="374.5" y="260.1777">ingest &#183; search</text></g><!--entity other_api--><g id="elem_other_api"><rect fill="#EEF4FF" height="96.5527" rx="2.5" ry="2.5" style="stroke:#365880;stroke-width:0.5;" width="144.3887" x="202" y="191.4883"/><text fill="#000000" font-family="sans-serif" font-size="13" lengthAdjust="spacing" textLength="94.1865" x="212" y="214.0566">routes/auth.py</text><text fill="#000000" font-family="sans-serif" font-size="13" lengthAdjust="spacing" textLength="111.9409" x="212" y="229.3672">routes/models.py</text><text fill="#000000" font-family="sans-serif" font-size="13" lengthAdjust="spacing" textLength="124.3887" x="212" y="244.6777">routes/inference.py</text><text fill="#000000" font-family="sans-serif" font-size="13" lengthAdjust="spacing" textLength="115.3369" x="212" y="259.9883">routes/security.py</text><text fill="#000000" font-family="sans-serif" font-size="13" lengthAdjust="spacing" textLength="105.187" x="212" y="275.2988">routes/health.py</text></g><!--entity deps--><g id="elem_deps"><rect fill="#EEF4FF" height="65.9316" rx="2.5" ry="2.5" style="stroke:#365880;stroke-width:0.5;" width="213.9082" x="167" y="384.9883"/><text fill="#000000" font-family="sans-serif" font-size="13" lengthAdjust="spacing" textLength="105.7837" x="177" y="407.5566">dependencies.py</text><text fill="#000000" font-family="sans-serif" font-size="13" lengthAdjust="spacing" textLength="193.9082" x="177" y="422.8672">CurrentUser &#183; DatabaseSession</text><text fill="#000000" font-family="sans-serif" font-size="13" lengthAdjust="spacing" textLength="184.0313" x="177" y="438.1777">AppSettings &#183; OllamaProvider</text></g><!--entity service--><g id="elem_service"><rect fill="#EEF4FF" height="65.9316" rx="2.5" ry="2.5" style="stroke:#365880;stroke-width:0.5;" width="215.4761" x="827.5" y="384.9883"/><text fill="#000000" font-family="sans-serif" font-size="13" lengthAdjust="spacing" textLength="62.6641" x="837.5" y="407.5566">service.py</text><text fill="#000000" font-family="sans-serif" font-size="13" lengthAdjust="spacing" textLength="195.4761" x="837.5" y="422.8672">validate_inputs() &#183; create_task()</text><text fill="#000000" font-family="sans-serif" font-size="13" lengthAdjust="spacing" textLength="163.8838" x="837.5" y="438.1777">cancel_task() &#183; retry_task()</text></g><!--entity runtime--><g id="elem_runtime"><rect fill="#DBEAFE" height="81.2422" rx="2.5" ry="2.5" style="stroke:#365880;stroke-width:0.5;" width="253.2764" x="556.5" y="377.4883"/><text fill="#000000" font-family="sans-serif" font-size="13" lengthAdjust="spacing" textLength="68.542" x="566.5" y="400.0566">runtime.py</text><text fill="#000000" font-family="sans-serif" font-size="13" lengthAdjust="spacing" textLength="217.1533" x="566.5" y="415.3672">task_worker_loop() &#183; execute_run()</text><text fill="#000000" font-family="sans-serif" font-size="13" lengthAdjust="spacing" textLength="170.9614" x="566.5" y="430.6777">execute_coding_workflow()</text><text fill="#000000" font-family="sans-serif" font-size="13" lengthAdjust="spacing" textLength="233.2764" x="566.5" y="445.9883">check_run() &#183; add_step() &#183; add_audit()</text></g><!--entity coding--><g id="elem_coding"><rect fill="#EEF4FF" height="50.6211" rx="2.5" ry="2.5" style="stroke:#365880;stroke-width:0.5;" width="199.1753" x="821.5" y="554.9883"/><text fill="#000000" font-family="sans-serif" font-size="13" lengthAdjust="spacing" textLength="99.6074" x="831.5" y="577.5566">coding_react.py</text><text fill="#000000" font-family="sans-serif" font-size="13" lengthAdjust="spacing" textLength="179.1753" x="831.5" y="592.8672">execute_coding_react_loop()</text></g><!--entity loop--><g id="elem_loop"><rect fill="#EEF4FF" height="50.6211" rx="2.5" ry="2.5" style="stroke:#365880;stroke-width:0.5;" width="122.083" x="860" y="675.9883"/><text fill="#000000" font-family="sans-serif" font-size="13" lengthAdjust="spacing" textLength="84.7603" x="870" y="698.5566">react_loop.py</text><text fill="#000000" font-family="sans-serif" font-size="13" lengthAdjust="spacing" textLength="102.083" x="870" y="713.8672">run_react_loop()</text></g><!--entity controls--><g id="elem_controls"><rect fill="#EEF4FF" height="65.9316" rx="2.5" ry="2.5" style="stroke:#365880;stroke-width:0.5;" width="274.2554" x="694" y="815.9883"/><text fill="#000000" font-family="sans-serif" font-size="13" lengthAdjust="spacing" textLength="219.1465" x="704" y="838.5566">react_actions.py &#183; react_policies.py</text><text fill="#000000" font-family="sans-serif" font-size="13" lengthAdjust="spacing" textLength="254.2554" x="704" y="853.8672">react_context.py &#183; react_observations.py</text><text fill="#000000" font-family="sans-serif" font-size="13" lengthAdjust="spacing" textLength="157.8027" x="704" y="869.1777">completion_validators.py</text></g><!--entity routing--><g id="elem_routing"><rect fill="#EEF4FF" height="50.6211" rx="2.5" ry="2.5" style="stroke:#365880;stroke-width:0.5;" width="207.478" x="1669.5" y="554.9883"/><text fill="#000000" font-family="sans-serif" font-size="13" lengthAdjust="spacing" textLength="110.8682" x="1679.5" y="577.5566">routing/router.py</text><text fill="#000000" font-family="sans-serif" font-size="13" lengthAdjust="spacing" textLength="187.478" x="1679.5" y="592.8672">classify_task() &#183; route_model()</text></g><!--entity tools--><g id="elem_tools"><rect fill="#EEF4FF" height="65.9316" rx="2.5" ry="2.5" style="stroke:#365880;stroke-width:0.5;" width="176.4126" x="1279" y="547.4883"/><text fill="#000000" font-family="sans-serif" font-size="13" lengthAdjust="spacing" textLength="105.1489" x="1289" y="570.0566">tools/registry.py</text><text fill="#000000" font-family="sans-serif" font-size="13" lengthAdjust="spacing" textLength="156.4126" x="1289" y="585.3672">ToolRegistry &#183; AgentTool</text><text fill="#000000" font-family="sans-serif" font-size="13" lengthAdjust="spacing" textLength="138.4741" x="1289" y="600.6777">authorize() &#183; execute()</text></g><!--entity workflows--><g id="elem_workflows"><rect fill="#EEF4FF" height="65.9316" rx="2.5" ry="2.5" style="stroke:#365880;stroke-width:0.5;" width="194.3193" x="1067" y="547.4883"/><text fill="#000000" font-family="sans-serif" font-size="13" lengthAdjust="spacing" textLength="174.3193" x="1077" y="570.0566">services/hybrid_retrieval.py</text><text fill="#000000" font-family="sans-serif" font-size="13" lengthAdjust="spacing" textLength="147.9321" x="1077" y="585.3672">services/multimodal.py</text><text fill="#000000" font-family="sans-serif" font-size="13" lengthAdjust="spacing" textLength="157.1934" x="1077" y="600.6777">services/procurement.py</text></g><!--entity ingestion--><g id="elem_ingestion"><rect fill="#EEF4FF" height="65.9316" rx="2.5" ry="2.5" style="stroke:#365880;stroke-width:0.5;" width="238.0547" x="1278" y="668.4883"/><text fill="#000000" font-family="sans-serif" font-size="13" lengthAdjust="spacing" textLength="209.2822" x="1288" y="691.0566">services/knowledge_ingestion.py</text><text fill="#000000" font-family="sans-serif" font-size="13" lengthAdjust="spacing" textLength="209.7202" x="1288" y="706.3672">services/document_extraction.py</text><text fill="#000000" font-family="sans-serif" font-size="13" lengthAdjust="spacing" textLength="218.0547" x="1288" y="721.6777">documents/parser.py &#183; chunker.py</text></g><!--entity account--><g id="elem_account"><rect fill="#EEF4FF" height="50.6211" rx="2.5" ry="2.5" style="stroke:#365880;stroke-width:0.5;" width="189.9395" x="1895" y="554.9883"/><text fill="#000000" font-family="sans-serif" font-size="13" lengthAdjust="spacing" textLength="104.2856" x="1905" y="577.5566">services/auth.py</text><text fill="#000000" font-family="sans-serif" font-size="13" lengthAdjust="spacing" textLength="169.9395" x="1905" y="592.8672">services/model_registry.py</text></g><!--entity artifacts--><g id="elem_artifacts"><rect fill="#EEF4FF" height="65.9316" rx="2.5" ry="2.5" style="stroke:#365880;stroke-width:0.5;" width="178.2153" x="1473" y="547.4883"/><text fill="#000000" font-family="sans-serif" font-size="13" lengthAdjust="spacing" textLength="107.9292" x="1483" y="570.0566">artifacts/docx.py</text><text fill="#000000" font-family="sans-serif" font-size="13" lengthAdjust="spacing" textLength="107.1992" x="1483" y="585.3672">artifacts/code.py</text><text fill="#000000" font-family="sans-serif" font-size="13" lengthAdjust="spacing" textLength="158.2153" x="1483" y="600.6777">artifacts/procurement.py</text></g><!--entity provider--><g id="elem_provider"><rect fill="#EEF4FF" height="50.6211" rx="2.5" ry="2.5" style="stroke:#365880;stroke-width:0.5;" width="193.0498" x="1712.5" y="823.4883"/><text fill="#000000" font-family="sans-serif" font-size="13" lengthAdjust="spacing" textLength="173.0498" x="1722.5" y="846.0566">model_providers/ollama.py</text><text fill="#000000" font-family="sans-serif" font-size="13" lengthAdjust="spacing" textLength="134.1958" x="1722.5" y="861.3672">OllamaModelProvider</text></g><!--entity vector--><g id="elem_vector"><rect fill="#EEF4FF" height="50.6211" rx="2.5" ry="2.5" style="stroke:#365880;stroke-width:0.5;" width="176.438" x="1518" y="823.4883"/><text fill="#000000" font-family="sans-serif" font-size="13" lengthAdjust="spacing" textLength="156.438" x="1528" y="846.0566">services/qdrant_store.py</text><text fill="#000000" font-family="sans-serif" font-size="13" lengthAdjust="spacing" textLength="76.1211" x="1528" y="861.3672">QdrantStore</text></g><!--entity sandbox--><g id="elem_sandbox"><rect fill="#EEF4FF" height="50.6211" rx="2.5" ry="2.5" style="stroke:#365880;stroke-width:0.5;" width="196.7505" x="1923.5" y="823.4883"/><text fill="#000000" font-family="sans-serif" font-size="13" lengthAdjust="spacing" textLength="176.7505" x="1933.5" y="846.0566">services/code_repository.py</text><text fill="#000000" font-family="sans-serif" font-size="13" lengthAdjust="spacing" textLength="171.1519" x="1933.5" y="861.3672">services/sandbox_client.py</text></g><!--entity files--><g id="elem_files"><rect fill="#EEF4FF" height="50.6211" rx="2.5" ry="2.5" style="stroke:#365880;stroke-width:0.5;" width="257.999" x="2403" y="823.4883"/><text fill="#000000" font-family="sans-serif" font-size="13" lengthAdjust="spacing" textLength="149.4683" x="2413" y="846.0566">services/file_storage.py</text><text fill="#000000" font-family="sans-serif" font-size="13" lengthAdjust="spacing" textLength="237.999" x="2413" y="861.3672">store_upload() &#183; resolve_storage_key()</text></g><!--entity db--><g id="elem_db"><rect fill="#EEF4FF" height="50.6211" rx="2.5" ry="2.5" style="stroke:#365880;stroke-width:0.5;" width="246.0845" x="2139" y="823.4883"/><text fill="#000000" font-family="sans-serif" font-size="13" lengthAdjust="spacing" textLength="189.7441" x="2149" y="846.0566">db/models.py &#183; db/session.py</text><text fill="#000000" font-family="sans-serif" font-size="13" lengthAdjust="spacing" textLength="226.0845" x="2149" y="861.3672">SQLAlchemy models + SessionLocal</text></g><polygon fill="#526580" points="162.7475,206.7478,172.5782,206.1499,167.1848,204.4435,168.8912,199.0501,162.7475,206.7478" style="stroke:#526580;stroke-width:1;"/><path d="M317.814,136.5827 C281.0917,151.561 233.9281,171.5923 193,191.4883 C183.1484,196.2773 178.1146,198.7676 168.0723,203.9826 " fill="none" style="stroke:#526580;stroke-width:1;stroke-dasharray:7.0,7.0;"/><text fill="#000000" font-family="sans-serif" font-size="13" lengthAdjust="spacing" textLength="47.7471" x="277" y="169.0566">mounts</text><polygon fill="#526580" points="430.6359,206.5582,429.9139,196.7358,428.2757,202.1503,422.8613,200.5121,430.6359,206.5582" style="stroke:#526580;stroke-width:1;"/><path d="M393.2725,136.7766 C403.9401,156.7 416.1777,179.5555 427.8037,201.2687 " fill="none" style="stroke:#526580;stroke-width:1;stroke-dasharray:7.0,7.0;"/><text fill="#000000" font-family="sans-serif" font-size="13" lengthAdjust="spacing" textLength="47.7471" x="414" y="169.0566">mounts</text><polygon fill="#526580" points="313.7385,191.3771,322.5764,187.0307,316.9424,187.5385,316.4346,181.9044,313.7385,191.3771" style="stroke:#526580;stroke-width:1;"/><path d="M359.3105,136.7766 C346.3568,152.2967 333.0837,168.1994 317.5831,186.7707 " fill="none" style="stroke:#526580;stroke-width:1;stroke-dasharray:7.0,7.0;"/><text fill="#000000" font-family="sans-serif" font-size="13" lengthAdjust="spacing" textLength="47.7471" x="345" y="169.0566">mounts</text><polygon fill="#526580" points="735.1139,377.3382,744.8091,375.605,739.2543,374.5351,740.3241,368.9804,735.1139,377.3382" style="stroke:#526580;stroke-width:1;"/><path d="M470.7186,117.2648 C588.9759,129.5858 791.6842,170.55 885,306.4883 C889.7791,313.4502 890.606,319.1731 885,325.4883 C875.0455,336.702 832.1543,328.5389 818,333.4883 C788.7344,343.7217 764.0879,357.7226 740.0824,373.9745 " fill="none" style="stroke:#526580;stroke-width:1;stroke-dasharray:7.0,7.0;"/><text fill="#000000" font-family="sans-serif" font-size="13" lengthAdjust="spacing" textLength="132.3994" x="873" y="245.0566">starts / stops worker</text><polygon fill="#526580" points="242.8348,384.9118,239.4321,375.6694,239.3506,381.3257,233.6943,381.2442,242.8348,384.9118" style="stroke:#526580;stroke-width:1;"/><path d="M134.364,273.2694 C165.2179,305.0255 207.8687,348.9233 238.6537,380.6085 " fill="none" style="stroke:#526580;stroke-width:1;stroke-dasharray:7.0,7.0;"/><polygon fill="#526580" points="305.712,384.9118,314.884,381.3238,309.2272,381.3561,309.1949,375.6994,305.712,384.9118" style="stroke:#526580;stroke-width:1;"/><path d="M416.0857,273.2694 C384.6905,305.0255 341.2554,348.9598 309.9303,380.645 " fill="none" style="stroke:#526580;stroke-width:1;stroke-dasharray:7.0,7.0;"/><polygon fill="#526580" points="274,384.8958,278,375.8958,274,379.8958,270,375.8958,274,384.8958" style="stroke:#526580;stroke-width:1;"/><path d="M274,288.6164 C274,319.1573 274,351.9811 274,378.8958 " fill="none" style="stroke:#526580;stroke-width:1;stroke-dasharray:7.0,7.0;"/><polygon fill="#526580" points="899.1552,384.797,894.7181,376.0043,895.2838,381.6328,889.6553,382.1985,899.1552,384.797" style="stroke:#526580;stroke-width:1;"/><path d="M154.2005,273.0071 C166.4841,279.2575 179.8613,284.9604 193,288.4883 C292.0152,315.075 552.001,296.1411 654,306.4883 C727.4929,313.9437 749.7193,305.3007 818,333.4883 C847.756,345.7721 872.5867,363.0815 894.5095,380.9999 " fill="none" style="stroke:#526580;stroke-width:1;stroke-dasharray:7.0,7.0;"/><text fill="#000000" font-family="sans-serif" font-size="13" lengthAdjust="spacing" textLength="81.0278" x="798" y="321.0566">task lifecycle</text><polygon fill="#526580" points="629.1393,377.4851,623.8045,369.2062,624.9574,374.7443,619.4193,375.8972,629.1393,377.4851" style="stroke:#526580;stroke-width:1;"/><path d="M156.369,273.137 C168.1022,279.0612 180.7039,284.596 193,288.4883 C342.9439,335.9523 395.4263,281.8951 544,333.4883 C573.9178,343.8774 599.3659,357.972 624.121,374.1962 " fill="none" style="stroke:#526580;stroke-width:1;stroke-dasharray:7.0,7.0;"/><text fill="#000000" font-family="sans-serif" font-size="13" lengthAdjust="spacing" textLength="127.4482" x="521" y="321.0566">notify_task_worker()</text><polygon fill="#526580" points="1516.2171,675.6396,1525.7871,677.9665,1521.1366,674.7459,1524.3572,670.0953,1516.2171,675.6396" style="stroke:#526580;stroke-width:1;"/><path d="M531.7326,256.3171 C591.9709,266.8267 675.2559,280.2997 749,288.4883 C1049.8345,321.893 1909.0195,263.9064 2094,503.4883 C2123.8777,542.1851 2126.7544,577.194 2094,613.4883 C2013.9275,702.2145 1677.196,650.778 1559,668.4883 C1545.1075,670.5699 1536.5016,671.9546 1522.1205,674.5672 " fill="none" style="stroke:#526580;stroke-width:1;stroke-dasharray:7.0,7.0;"/><text fill="#000000" font-family="sans-serif" font-size="13" lengthAdjust="spacing" textLength="137.9346" x="2087" y="491.0566">background ingestion</text><polygon fill="#526580" points="2528.1744,823.343,2530.8553,813.866,2527.4641,818.3937,2522.9365,815.0025,2528.1744,823.343" style="stroke:#526580;stroke-width:1;"/><path d="M531.6472,257.1579 C591.8449,268.0663 675.1166,281.6705 749,288.4883 C1038.5466,315.2067 1112.5028,293.7402 1403,306.4883 C1602.2806,315.2334 1652.3779,315.0897 1851,333.4883 C1999.7424,347.2664 2518,267.6091 2518,416.9883 C2518,416.9883 2518,416.9883 2518,702.4883 C2518,745.1218 2523.1769,788.5213 2527.3221,817.4039 " fill="none" style="stroke:#526580;stroke-width:1;stroke-dasharray:7.0,7.0;"/><text fill="#000000" font-family="sans-serif" font-size="13" lengthAdjust="spacing" textLength="43.3545" x="2520" y="585.5566">upload</text><polygon fill="#526580" points="1962.6254,554.6277,1958.3182,545.7706,1958.801,551.4068,1953.1648,551.8896,1962.6254,554.6277" style="stroke:#526580;stroke-width:1;"/><path d="M346.0785,285.5247 C349.0456,286.6298 352.0251,287.6259 355,288.4883 C468.1856,321.3004 767.6939,295.2243 885,306.4883 C1210.1098,337.706 1720.7235,431.2518 1885,503.4883 C1913.8395,516.1697 1937.9492,533.8452 1958.0361,550.7626 " fill="none" style="stroke:#526580;stroke-width:1;stroke-dasharray:7.0,7.0;"/><polygon fill="#526580" points="2287.9894,823.1763,2297.1187,819.4809,2291.4627,819.5796,2291.364,813.9236,2287.9894,823.1763" style="stroke:#526580;stroke-width:1;"/><path d="M1042.7194,422.039 C1329.6745,430.7456 2097.9176,458.052 2203,503.4883 C2285.6354,539.2188 2321.3761,550.165 2360,631.4883 C2392.7457,700.4349 2331.1528,778.4793 2292.1574,818.8603 " fill="none" style="stroke:#526580;stroke-width:1;stroke-dasharray:7.0,7.0;"/><text fill="#000000" font-family="sans-serif" font-size="13" lengthAdjust="spacing" textLength="117.9331" x="2369" y="646.0566">commit task + run</text><polygon fill="#526580" points="2251.863,823.2249,2252.1296,813.3796,2249.9568,818.6025,2244.7339,816.4296,2251.863,823.2249" style="stroke:#526580;stroke-width:1;"/><path d="M809.6068,457.565 C812.4223,458.078 815.2226,458.554 818,458.9883 C958.4901,480.955 1978.8144,424.4176 2097,503.4883 C2126.281,523.0784 2218.3533,741.9698 2249.5755,817.678 " fill="none" style="stroke:#526580;stroke-width:1;stroke-dasharray:7.0,7.0;"/><text fill="#000000" font-family="sans-serif" font-size="13" lengthAdjust="spacing" textLength="166.3784" x="2180" y="646.0566">FIFO queue / steps / audit</text><polygon fill="#526580" points="1743.1095,554.9683,1738.4077,546.3142,1739.1439,551.9229,1733.5351,552.6591,1743.1095,554.9683" style="stroke:#526580;stroke-width:1;"/><path d="M809.6079,457.5577 C812.4231,458.073 815.223,458.5514 818,458.9883 C977.6384,484.1059 1384.706,455.966 1545,476.4883 C1597.0758,483.1555 1611.8784,482.4964 1660,503.4883 C1690.3383,516.7227 1716.5306,534.557 1738.3508,551.3139 " fill="none" style="stroke:#526580;stroke-width:1;stroke-dasharray:7.0,7.0;"/><polygon fill="#526580" points="1128.5137,547.1525,1124.0281,538.3844,1124.6249,544.0097,1118.9996,544.6065,1128.5137,547.1525" style="stroke:#526580;stroke-width:1;"/><path d="M809.5763,457.0071 C839.0234,465.9983 863.9071,473.7748 871,476.4883 C889.758,483.6644 892.5156,490.6184 912,495.4883 C973.7553,510.9232 994.829,482.718 1055,503.4883 C1082.0404,512.8223 1103.7923,527.1737 1123.8472,543.3811 " fill="none" style="stroke:#526580;stroke-width:1;stroke-dasharray:7.0,7.0;"/><text fill="#000000" font-family="sans-serif" font-size="13" lengthAdjust="spacing" textLength="144.0664" x="1023" y="491.0566">evidence / comparison</text><polygon fill="#526580" points="1336.493,547.4549,1332.5904,538.4122,1332.818,544.0645,1327.1657,544.2922,1336.493,547.4549" style="stroke:#526580;stroke-width:1;"/><path d="M809.6389,457.3752 C812.4447,457.9456 815.2343,458.4847 818,458.9883 C924.0918,478.3071 956.6939,445.5602 1060,476.4883 C1076.5833,481.453 1077.3518,490.7459 1094,495.4883 C1131.6536,506.2142 1233.2899,489.8791 1270,503.4883 C1295.0745,512.7839 1314.3788,527.0531 1332.083,543.3864 " fill="none" style="stroke:#526580;stroke-width:1;stroke-dasharray:7.0,7.0;"/><polygon fill="#526580" points="821.3294,566.6266,813.5297,560.613,816.471,565.445,811.639,568.3863,821.3294,566.6266" style="stroke:#526580;stroke-width:1;"/><path d="M680.3649,458.7181 C681.4234,471.6167 684.8087,485.2314 693,495.4883 C724.1944,534.5491 769.5326,554.0286 815.4994,565.2086 " fill="none" style="stroke:#526580;stroke-width:1;stroke-dasharray:7.0,7.0;"/><text fill="#000000" font-family="sans-serif" font-size="13" lengthAdjust="spacing" textLength="174.3828" x="695" y="491.0566">when react_coding_enabled</text><polygon fill="#526580" points="1529.9864,547.3611,1525.9284,538.3871,1526.2535,544.0346,1520.606,544.3598,1529.9864,547.3611" style="stroke:#526580;stroke-width:1;"/><path d="M809.6193,457.4879 C812.431,458.0242 815.2272,458.5258 818,458.9883 C959.9354,482.6594 1330.7597,449.1466 1464,503.4883 C1488.5216,513.4893 1507.6233,527.4329 1525.5069,543.3693 " fill="none" style="stroke:#526580;stroke-width:1;stroke-dasharray:7.0,7.0;"/><text fill="#000000" font-family="sans-serif" font-size="13" lengthAdjust="spacing" textLength="99.4106" x="1440" y="491.0566">publish outputs</text><polygon fill="#526580" points="1839.8736,823.3433,1849.4883,821.2085,1843.8938,820.3705,1844.7318,814.7761,1839.8736,823.3433" style="stroke:#526580;stroke-width:1;"/><path d="M809.6068,457.565 C812.4223,458.078 815.2226,458.554 818,458.9883 C888.2451,469.9716 2048.1312,451.8468 2097,503.4883 C2170.0107,580.6414 2164.2574,660.2715 2097,742.4883 C2044.4596,806.7147 1990.7868,748.0349 1914,779.4883 C1887.2123,790.4611 1864.7422,804.9541 1844.6979,819.7759 " fill="none" style="stroke:#526580;stroke-width:1;stroke-dasharray:7.0,7.0;"/><polygon fill="#526580" points="921,675.863,925,666.863,921,670.863,917,666.863,921,675.863" style="stroke:#526580;stroke-width:1;"/><path d="M921,606.1452 C921,626.5685 921,649.4484 921,669.863 " fill="none" style="stroke:#526580;stroke-width:1;stroke-dasharray:7.0,7.0;"/><text fill="#000000" font-family="sans-serif" font-size="13" lengthAdjust="spacing" textLength="57.5986" x="923" y="646.0566">callbacks</text><polygon fill="#526580" points="829.2849,815.8499,833.0904,806.766,829.1774,810.8511,825.0923,806.938,829.2849,815.8499" style="stroke:#526580;stroke-width:1;"/><path d="M894.5586,606.3201 C879.1331,622.4693 860.8295,644.8616 851,668.4883 C830.8257,716.9805 828.3602,772.8622 829.1559,809.8513 " fill="none" style="stroke:#526580;stroke-width:1;stroke-dasharray:7.0,7.0;"/><polygon fill="#526580" points="1335.109,547.2969,1331.176,538.2674,1331.4227,543.9189,1325.7712,544.1655,1335.109,547.2969" style="stroke:#526580;stroke-width:1;"/><path d="M955.7211,554.9455 C981.6885,537.2813 1018.8108,514.9673 1055,503.4883 C1090.49,492.2311 1183.2268,497.548 1226,499.4883 C1245.616,500.3781 1251.7705,496.1901 1270,503.4883 C1294.3523,513.2378 1313.1001,527.1287 1330.6854,543.2433 " fill="none" style="stroke:#526580;stroke-width:1;stroke-dasharray:7.0,7.0;"/><text fill="#000000" font-family="sans-serif" font-size="13" lengthAdjust="spacing" textLength="124.8457" x="1100" y="491.0566">governed execution</text><polygon fill="#526580" points="850.9242,815.7775,859.0605,810.2277,853.5545,811.5253,852.2569,806.0192,850.9242,815.7775" style="stroke:#526580;stroke-width:1;"/><path d="M905.7327,727.1704 C890.6372,751.5748 870.6183,783.9387 854.0805,810.6748 " fill="none" style="stroke:#526580;stroke-width:1;stroke-dasharray:7.0,7.0;"/><text fill="#000000" font-family="sans-serif" font-size="13" lengthAdjust="spacing" textLength="196.4727" x="892" y="767.0566">parse / budgets / observations</text><polygon fill="#526580" points="1780.1496,823.1618,1775.5098,814.4743,1776.2059,820.0882,1770.5921,820.7843,1780.1496,823.1618" style="stroke:#526580;stroke-width:1;"/><path d="M982.2722,724.3607 C1004.8398,731.4593 1030.8018,738.5221 1055,742.4883 C1180.9524,763.1322 1214.9385,740.4242 1342,752.4883 C1396.6302,757.6752 1409.3663,766.3387 1464,771.4883 C1490.4532,773.9817 1677.6446,771.5451 1703,779.4883 C1731.6453,788.4621 1755.2563,803.7606 1775.4172,819.4735 " fill="none" style="stroke:#526580;stroke-width:1;stroke-dasharray:7.0,7.0;"/><text fill="#000000" font-family="sans-serif" font-size="13" lengthAdjust="spacing" textLength="159.4912" x="1473" y="767.0566">structured action request</text><polygon fill="#526580" points="2029.6559,823.2493,2035.8308,815.5766,2030.9385,818.4166,2028.0985,813.5243,2029.6559,823.2493" style="stroke:#526580;stroke-width:1;"/><path d="M1455.0629,611.4463 C1458.0662,612.1779 1461.0511,612.8621 1464,613.4883 C1583.9361,638.958 1928.4845,579.6598 2013,668.4883 C2052.5743,710.0821 2041.4491,778.8156 2031.1951,817.4501 " fill="none" style="stroke:#526580;stroke-width:1;stroke-dasharray:7.0,7.0;"/><text fill="#000000" font-family="sans-serif" font-size="13" lengthAdjust="spacing" textLength="84.6143" x="2042" y="706.5566">patch / verify</text><polygon fill="#526580" points="1622.1346,823.1465,1629.9291,817.1261,1624.5093,818.7464,1622.8889,813.3266,1622.1346,823.1465" style="stroke:#526580;stroke-width:1;"/><path d="M1455.3143,610.4605 C1518.2575,636.4971 1597.5789,681.7052 1632,752.4883 C1643.0466,775.2043 1635.6835,798.0412 1624.9842,817.8664 " fill="none" style="stroke:#526580;stroke-width:1;stroke-dasharray:7.0,7.0;"/><text fill="#000000" font-family="sans-serif" font-size="13" lengthAdjust="spacing" textLength="113.4072" x="1628" y="706.5566">knowledge search</text><polygon fill="#526580" points="1334.1417,668.3847,1327.9459,660.7288,1329.6889,666.1105,1324.3072,667.8534,1334.1417,668.3847" style="stroke:#526580;stroke-width:1;"/><path d="M1226.7462,613.5346 C1260.0387,630.5381 1295.489,648.6436 1328.7983,665.6556 " fill="none" style="stroke:#526580;stroke-width:1;stroke-dasharray:7.0,7.0;"/><polygon fill="#526580" points="1777.1527,823.46,1772.1833,814.9568,1773.0941,820.5398,1767.511,821.4506,1777.1527,823.46" style="stroke:#526580;stroke-width:1;"/><path d="M1516.2139,723.0222 C1574.0736,735.3413 1643.7187,753.7146 1703,779.4883 C1729.5241,791.0202 1752.007,805.3676 1772.2824,819.9558 " fill="none" style="stroke:#526580;stroke-width:1;stroke-dasharray:7.0,7.0;"/><text fill="#000000" font-family="sans-serif" font-size="13" lengthAdjust="spacing" textLength="77.7271" x="1682" y="767.0566">embeddings</text><polygon fill="#526580" points="1517.9867,837.7516,1509.637,832.5284,1513.0362,837.0501,1508.5145,840.4493,1517.9867,837.7516" style="stroke:#526580;stroke-width:1;"/><path d="M1314.0405,734.8312 C1299.5671,745.1737 1292.1773,757.5935 1303,771.4883 C1329.2964,805.249 1432.2978,825.6087 1512.046,836.9098 " fill="none" style="stroke:#526580;stroke-width:1;stroke-dasharray:7.0,7.0;"/><text fill="#000000" font-family="sans-serif" font-size="13" lengthAdjust="spacing" textLength="35.2231" x="1305" y="767.0566">index</text><polygon fill="#526580" points="1817.8344,823.1968,1824.7452,816.1796,1819.5936,818.5165,1817.2567,813.3649,1817.8344,823.1968" style="stroke:#526580;stroke-width:1;"/><path d="M1958.3403,606.0731 C1938.9147,622.2952 1914.4963,644.8544 1897,668.4883 C1859.829,718.6986 1833.5349,781.4264 1819.9454,817.5804 " fill="none" style="stroke:#526580;stroke-width:1;stroke-dasharray:7.0,7.0;"/><text fill="#000000" font-family="sans-serif" font-size="13" lengthAdjust="spacing" textLength="112.6011" x="1899" y="706.5566">health / inference</text><rect fill="none" height="75.9531" id="_legend" rx="7.5" ry="7.5" style="stroke:#000000;stroke-width:1;" width="625.8564" x="1017.0718" y="903.9883"/><text fill="#000000" font-family="sans-serif" font-size="14" lengthAdjust="spacing" textLength="498.2031" x="1022.0718" y="922.5234">Dashed arrow = selected code dependency or call, not network topology.</text><text fill="#000000" font-family="sans-serif" font-size="14" lengthAdjust="spacing" textLength="545.1045" x="1022.0718" y="939.0117">Grouped filenames are separate Python modules; no service classes are implied.</text><text fill="#000000" font-family="sans-serif" font-size="14" lengthAdjust="spacing" textLength="615.8564" x="1022.0718" y="955.5">Shared Settings, schemas, errors and repeated adapter/storage dependencies are omitted.</text><text fill="#000000" font-family="sans-serif" font-size="14" lengthAdjust="spacing" textLength="570.6641" x="1022.0718" y="971.9883">Runtime is an in-process FIFO worker with an asyncio lock, not a distributed queue.</text><!--SRC=[TLVDZXit3BxFKwYRIuAawxRf5kqMBU3zIuDkcqsStXOmD3EqBLWZJIJDUgT5WJv4twNtFagVf2Ib-VFQFdaeyYD5VIAfpsedrvKKMhQs2S9N4AIHML11WxYGnHPCAMvlhyH_V_qjL5LhgC04ACLT6pRMYCgMZGQV1LkBO4LkGx2LA9M38YXhChzLffPELY97iBMpZIalhRPEFBlXtqZ3RsHfTyginKfg3wELmbQrDUXu4LgCYy2bMUknIWahsUXmOqtuLLOW5jBu1JYrEgopKB-3-FBrQ77kdDsbqCw- -kRisoz6YpK6BzTmt7qVuSN-Dg-lRxwUR7DGjQu4bzHUeyT3BYTAtrtEho_7GHjRWeTQl3uR2PqqMnAUdMLPGX4dFttyU8V7Wt59ruf__n6ohcULLEQqRiLB_fArEX5_P6A8K9oCjExDZVHXVlSMrNVMRS49hLRWQsbEXFI2rAR6c8O0VXQatte6y4rUgK3U2saAqFJFGN2q5A3s79SBQYMB43-QKWL6Pv0bXdZGnTROdOPo3Uo6eiEm2c2CbTBnpyyN_juWlS1p21waApOCtfiVTI2Ri67iz8sy1-t74cLMu01tDHPwA1gdGZkMRK1g1cFNDcp0FNLRGeqt3-4KH2-NZKFqy9l7j6FmLpB8N7fOWFTup-xDlAuN409kZ_VwJcjPoJjd7nJIXpqXfC_-7542JRGg9DrJ0OyOAVzBrE1yFw43UdzGQOiFKgjI1bWYxvhWdx_WStL08h9-_kBUn6DEd_rffs-EAY7k9RqnGLNH3Uak8z-MsjewuiHuOOcQvAVxB6o96M3rbROx3c43nJRgyTxASabS6xwOOocQv5WykxgudjzSJwDAuBZ38d1eUrvv8SN8Q56-jxLUANAYCK_jwEyXAyarbVWGKqcosk8PTYI9eWBh6po6YPhDAT6oiyUqM2hczBrC1scTxqX92CxgALqkPIrpfLL0Rq-8GTp6lSwOuovwq1AvkMh7fq-hIxuxNSAZtHGiMFGzSx1M7jd2O1zHz24926c-HaqItXkwcjPXFPym8-4pr44EuqLiSwVA9L5I0IOXbgXkjS9EeJ3KVNdjBDvfReDTkZgw7NCqb9TOVJ3fKymI8GbmYSVcuYcpGYT7hz9vpYjViarZjlp5xdlG8-xxsZNiZKvWEKemuyYYmFuGzXf0Luufo4U66KH8SDWJ7KXFlpYjFgMiaIguZ1D6ZNym5YgVJwWLWwrJAVCpowMDtSOgzmifJ4fTftma8PzAR941ou1rCVptB5ZGDzi_O8UtnwnfqvYxsdg5Ikqqinvtazl7PQ7LA0D9UWIG6XG78rF_ui2MJQsjBBkowQr-wBMMMsWJmRcxxVMEV6XFP8pVFhO9Hb-ylvrhh8fLAw8QzlFKHcvj8NLi5ZaT5hLqSNhwuz1znJaQ8Kdyi3PfdWVM-mvtOAshj-V21wI95pFyOskV1eniy4lQtC6cxdhnuAKNJOrJkj4LoNbqATe2XxYfsX2HiQ6hNgd_F7znm7j_-z1ac757b_AfIPn8paKyuRtGkrlOnSlRoL4RJvY69ux-9SMPTR7sAZTlRzw9Jmqqm8caYMeMPwY9RbTqnxA-XY4CqEN1guZ6H2lfbBTJRx6iZYMnrw7nRWD6T8s8-o8OcMC29kh3b7SkwYRNocy4HaM3n4Illya9dsJK7YaVKcjAk1-lzPrh9EDWqM1j7y0PVBlqmqx6K6Cx2eTABMuzR_3Cc9BZvZcOTA4nULrJ12nxfOZL6nE0n-135dqp_s8DO0UXs23i0prFsf5AB3keqLCc3QdPS3eJocK3-VOYWYg7aZBWztHw7mh7oySiiMtVFCwe66C_rMQPXZKz1kCJ3olEbVGRsZ2zcyGF6Ab6Q1HGVHJz_DeAz4P7zOekb30GQ2zu9ZYus7LxYa1la8yr6jArCFXseuv1EwVNJ82zb-Rt2DFVPHunaZuzJXMK1BZOI3gARXv-9JoLEub_08DDBGShE8sgk87OY6QfjehnwCt85gzTYCWV4ZKLOM1oFgTsXxKpthpqAjefJ1qkIzyYY4M-5jkuUualO-IAoXjop1VrD4DdCRN_0m00]--></g></svg>